# Blender v2.78 (sub 0) OBJ File: ''
# www.blender.org
mtllib skybox.mtl
o Cube.001
v 3380.475586 3398.967773 -3383.947510
v -3390.450195 3392.210205 -3383.947266
v -3383.693115 -3371.958008 -3390.706543
v 3380.475586 -3365.200684 -3390.707031
v 3373.718506 3398.965576 3380.220947
v -3390.450195 3392.208008 3380.221191
v -3390.449707 -3371.960449 3373.461914
v 3373.718262 -3365.202881 3380.218750
vt 0.0000 1.0000
vt 1.0000 1.0000
vt 0.0000 0.0000
vt 1.0000 0.0000
vt 0.0000 1.0000
vt 1.0000 1.0000
vt 0.0000 0.0000
vt 0.0000 1.0000
vt 1.0000 1.0000
vt 1.0000 0.0000
vt 0.0000 1.0000
vt 1.0000 1.0000
vt 1.0000 0.0000
vt 0.0000 0.0000
vt 0.0000 1.0000
vt 1.0000 1.0000
vt 0.0000 0.0000
vt 1.0000 0.0000
vt -0.0000 0.0000
vt 1.0000 0.0000
vn 0.0001 1.0000 0.0000
vn -0.0000 1.0000 0.0000
vn -0.0001 1.0000 -0.0000
vn -0.0000 0.0000 -1.0000
vn -0.0002 -0.0000 -1.0000
vn 0.0000 -0.0002 1.0000
vn 0.0000 -0.0000 1.0000
vn -1.0000 0.0000 -0.0000
vn -1.0000 0.0000 -0.0001
vn -1.0000 0.0000 0.0002
vn 1.0000 0.0000 0.0000
vn 0.0000 -1.0000 -0.0000
vn -0.0001 -1.0000 -0.0000
vn 0.0002 -1.0000 0.0000
usemtl Material_skyrender_0006.tif
s 1
f 3/1/1 7/2/2 4/3/3
f 7/2/2 8/4/2 4/3/3
usemtl Material_skyrender_0001.tif
f 6/5/4 5/6/4 7/7/4
f 5/6/4 8/4/5 7/7/4
usemtl Material_skyrender_0004.tif
f 1/8/6 2/9/7 3/10/7
f 1/8/6 3/10/7 4/3/7
usemtl Material_skyrender_0002.tif
f 5/11/8 1/12/8 4/13/9
f 5/11/8 4/13/9 8/14/10
usemtl Material_skyrender_0005.tif
f 2/15/11 6/16/11 3/17/11
f 6/16/11 7/18/11 3/17/11
usemtl Material_skyrender_0003.tif
f 2/19/12 1/8/13 5/6/14
f 2/19/12 5/6/14 6/20/13
