# Blender3D v245 OBJ File: skybox.blend
# www.blender3d.org
mtllib skybox.mtl
o Cube
v -500.999985 500.000008 -500.000000
v -500.999985 500.000015 500.999992
v 500.000031 500.999992 500.999977
v 500.999985 500.999985 -500.000038
v -500.000061 -500.999992 -500.999939
v -500.999954 -500.999985 500.000069
v 500.000015 -500.000008 500.999977
v 500.999977 -500.000015 -500.999992
vt -0.000000 0.000000 0.0
vt -0.000000 1.000000 0.0
vt 1.000000 1.000000 0.0
vt -0.000000 0.000000 0.0
vt 1.000000 1.000000 0.0
vt 1.000000 0.000000 0.0
vt 0.000000 1.000000 0.0
vt 1.000000 1.000000 0.0
vt 0.000000 0.000000 0.0
vt 1.000000 1.000000 0.0
vt 1.000000 0.000000 0.0
vt 0.000000 0.000000 0.0
vt 0.000000 1.000000 0.0
vt 1.000000 1.000000 0.0
vt 0.000000 0.000000 0.0
vt 1.000000 1.000000 0.0
vt 1.000000 0.000000 0.0
vt 0.000000 0.000000 0.0
vt 0.000000 1.000000 0.0
vt 1.000000 1.000000 0.0
vt 0.000000 0.000000 0.0
vt 1.000000 1.000000 0.0
vt 1.000000 0.000000 0.0
vt 0.000000 0.000000 0.0
vt 0.000000 1.000000 0.0
vt 1.000000 1.000000 0.0
vt 1.000000 0.000000 0.0
vt 0.000000 1.000000 0.0
vt 1.000000 0.000000 0.0
vt 0.000000 0.000000 0.0
vt 0.000000 1.000000 0.0
vt 1.000000 1.000000 0.0
vt 1.000000 0.000000 0.0
vt 0.000000 1.000000 0.0
vt 1.000000 0.000000 0.0
vt 0.000000 0.000000 0.0
vn 0.000000 -1.000000 0.000000
vn 0.000000 1.000000 0.000000
vn 1.000000 0.000000 0.000000
vn 1.000000 0.000000 -0.000001
vn 0.000000 0.000000 -1.000000
vn -1.000000 0.000000 0.000000
vn 0.000000 0.000000 1.000000
usemtl Material_skyrender_0003.tif
s off
f 1/1/1 4/2/1 3/3/1
f 1/4/1 3/5/1 2/6/1
usemtl Material_skyrender_0006.tif
f 5/7/2 6/8/2 8/9/2
f 6/10/2 7/11/2 8/12/2
usemtl Material_skyrender_0005.tif
f 1/13/3 2/14/3 5/15/3
f 2/16/4 6/17/4 5/18/4
usemtl Material_skyrender_0001.tif
f 2/19/5 3/20/5 6/21/5
f 3/22/5 7/23/5 6/24/5
usemtl Material_skyrender_0002.tif
f 3/25/6 4/26/6 8/27/6
f 3/28/6 8/29/6 7/30/6
usemtl Material_skyrender_0004.tif
f 4/31/7 1/32/7 5/33/7
f 4/34/7 5/35/7 8/36/7