# Blender v2.78 (sub 0) OBJ File: ''
# www.blender.org
mtllib Cube.001.mtl
o Cube.001
v -12.890143 18.186192 -15.055902
v 11.291087 18.204756 -15.055903
v 11.266955 18.204750 15.288586
v -12.890143 18.186186 15.288587
v -12.866013 -0.396189 -15.086219
v -12.890142 -0.396194 15.258270
v 11.291086 -0.377625 -15.086221
v 11.266954 -0.377630 15.288582
vt 0.0000 1.0000
vt 1.0000 1.0000
vt 0.0000 0.0000
vt 1.0000 0.0000
vt -0.0000 0.0000
vt -0.0000 1.0000
vt 1.0000 0.0000
vt 1.0000 1.0000
vt 1.0000 0.0000
vt 0.0000 0.0000
vt 0.0000 1.0000
vt 1.0000 1.0000
vt 0.0000 1.0000
vt 1.0000 1.0000
vt 1.0000 0.0000
vt 0.0000 0.0000
vt 0.0000 1.0000
vt 1.0000 1.0000
vt 0.0000 0.0000
vt 1.0000 0.0000
vn -0.0000 0.0007 -1.0000
vn 0.0003 0.0002 -1.0000
vn 0.0000 0.0005 -1.0000
vn 0.0002 -0.0000 -1.0000
vn -0.0002 -1.0000 -0.0000
vn -0.0001 -1.0000 0.0000
vn 0.0000 -0.0007 1.0000
vn 0.0002 1.0000 0.0000
vn 0.0001 1.0000 0.0000
vn -1.0000 0.0000 0.0002
vn -1.0000 0.0000 0.0003
vn 1.0000 0.0003 -0.0000
vn 1.0000 -0.0000 0.0000
vn 1.0000 0.0003 -0.0003
vn 1.0000 -0.0000 -0.0002
usemtl Material_skyrender_0001.tif
s 1
f 4/1/1 3/2/2 6/3/3
f 3/2/2 8/4/4 6/3/3
usemtl Material_skyrender_0003.tif
f 1/5/5 2/6/5 3/2/6
f 1/5/5 3/2/6 4/7/5
usemtl Material_skyrender_0004.tif
f 2/6/7 1/8/7 5/9/7
f 2/6/7 5/9/7 7/10/7
usemtl Material_skyrender_0006.tif
f 5/11/8 6/12/8 7/10/9
f 6/12/8 8/4/8 7/10/9
usemtl Material_skyrender_0002.tif
f 3/13/10 2/14/10 7/15/10
f 3/13/10 7/15/10 8/16/11
usemtl Material_skyrender_0005.tif
f 1/17/12 4/18/13 5/19/14
f 4/18/13 6/20/15 5/19/14
